# AST/ASF file generated using VICON BodyLanguage
# -----------------------------------------------
:version 1.10
:name VICON
:units
  mass 1.0
  length 0.45
  angle deg
:documentation
   .ast/.asf automatically generated from VICON data using
   VICON BodyBuilder and BodyLanguage model FoxedUp or BRILLIANT.MOD
:root
   order TX TY TZ RX RY RZ
   axis XYZ
   position 0 0 0  
   orientation 0 0 0 
:bonedata
  begin
     id 1 
     name lhipjoint
     direction 0.635376 -0.686425 0.353719 
     length 2.47244 
     axis 0 0 0  XYZ
  end
  begin
     id 2 
     name lfemur
     direction 0.34202 -0.939693 0  
     length 7.25268  
     axis 0 0 20  XYZ
    dof rx ry rz
    limits (-160.0 20.0)
           (-70.0 70.0)
           (-60.0 70.0)
  end
  begin
     id 3 
     name ltibia
     direction 0.34202 -0.939693 0   
     length 7.6767   
     axis 0 0 20   XYZ
    dof rx
    limits (-10.0 170.0)
  end
  begin
     id 4 
     name lfoot
     direction 0.0803374 -0.220725 0.972022   
     length 2.22945   
     axis -90 7.62852e-016 20   XYZ
    dof rx rz
    limits (-45.0 90.0)
           (-70.0 20.0)
  end
  begin
     id 5 
     name ltoes
     direction 1.53579e-011 -4.21994e-011 1   
     length 1.11848   
     axis -90 7.62852e-016 20   XYZ
    dof rx
    limits (-90.0 20.0)
  end
  begin
     id 6 
     name rhipjoint
     direction -0.664428 -0.664335 0.342336   
     length 2.55466  
     axis 0 0 0  XYZ 
  end
  begin
     id 7 
     name rfemur
     direction -0.34202 -0.939693 0   
     length 6.83172   
     axis 0 0 -20   XYZ
    dof rx ry rz
    limits (-160.0 20.0)
           (-70.0 70.0)
           (-70.0 60.0)
  end
  begin
     id 8 
     name rtibia
     direction -0.34202 -0.939693 0   
     length 7.62692   
     axis 0 0 -20   XYZ
    dof rx
    limits (-10.0 170.0)
 end
 begin
     id 9 
     name rfoot
     direction -0.0949276 -0.260811 0.960711   
     length 2.19684  
     axis -90 -7.62852e-016 -20   XYZ
    dof rx rz
    limits (-45.0 90.0)
           (-20.0 70.0)
  end
  begin
     id 10 
     name rtoes
     direction -1.53543e-011 -4.2183e-011 1   
     length 1.09848   
     axis -90 -7.62852e-016 -20   XYZ
    dof rx
    limits (-90.0 20.0)
  end
  begin
     id 11 
     name lowerback
     direction 0.0118782 0.999815 -0.0151555   
     length 2.15772   
     axis 0 0 0   XYZ
    dof rx ry rz
    limits (-20.0 45.0)
           (-30.0 30.0)
           (-30.0 30.0)
  end
  begin
     id 12 
     name upperback
     direction 0.00130825 0.999065 0.0432113   
     length 2.14863   
     axis 0 0 0   XYZ
    dof rx ry rz
    limits (-20.0 45.0)
           (-30.0 30.0)
           (-30.0 30.0)
  end
  begin
     id 13 
     name thorax
     direction -0.00347005 0.998773 0.0494011   
     length 2.14936   
     axis 0 0 0   XYZ
    dof rx ry rz
    limits (-20.0 45.0)
           (-30.0 30.0)
           (-30.0 30.0)
  end
  begin
     id 14 
     name lowerneck
     direction -0.0262159 0.99424 0.103921   
     length 1.69373   
     axis 0 0 0   XYZ
    dof rx ry rz
    limits (-20.0 45.0)
           (-30.0 30.0)
           (-30.0 30.0)
  end
  begin
     id 15 
     name upperneck
     direction 0.0353511 0.977394 -0.20845   
     length 1.70857   
     axis 0 0 0   XYZ
    dof rx ry rz
    limits (-20.0 45.0)
           (-30.0 30.0)
           (-30.0 30.0)
  end
  begin
     id 16
     name head
     direction 0.0139214 0.996594 -0.0812836  
     length 1.72777  
     axis 0 0 0   XYZ
    dof rx ry rz
    limits (-20.0 45.0)
           (-30.0 30.0)
           (-30.0 30.0)
  end
  begin
     id 17 
     name lclavicle
     direction 0.841247 0.537205 -0.0609508  
     length 3.55371  
     axis 0 0 0   XYZ
    dof ry rz
    limits (-20.0 10.0)
           (0.0 20.0)
  end
  begin
     id 18 
     name lhumerus
     direction 1 -4.48964e-011 1.60116e-018   
     length 4.91377   
     axis -180 -30 -90   XYZ
    dof rx ry rz
    limits (-60.0 90.0)
           (-90.0 90.0)
           (-90.0 90.0)
  end
  begin
     id 19
     name lradius
     direction 1 -4.48989e-011 -8.93847e-027   
     length 3.00291   
     axis -180 -30 -90   XYZ
    dof rx
    limits (-10.0 170.0)
  end
  begin
     id 20
     name lwrist
     direction 1 -4.48932e-011 -7.31504e-027   
     length 1.50145   
     axis 5.74121e-015 90 90   XYZ
    dof ry
    limits (-180.0 0.0)
 end
  begin
     id 21 
     name lhand
     direction 1 -4.48971e-011 -1.46301e-026   
     length 0.450922   
     axis 9.33524e-015 90 90   XYZ
    dof rx rz
    limits (-90.0 90.0)
           (-45.0 45.0)
  end
  begin
     id 22 
     name lfingers
     direction 1 -4.49039e-011 -2.92602e-026   
     length 0.363545   
     axis 1.86705e-014 90 90   XYZ
    dof rx
    limits (0.0 90.0)
  end
  begin
     id 23
     name lthumb
     direction 0.707107 -6.34941e-011 0.707107   
     length 0.52198   
     axis -90 45 2.85299e-015   XYZ
    dof rx rz
    limits (-45.0 45.0)
           (-45.0 45.0)
  end
  begin
     id 24 
     name rclavicle
     direction -0.825079 0.56158 -0.0622297   
     length 3.39909  
     axis 0 0 0   XYZ 
    dof ry rz
    limits (-10.0 20.0)
           (-20.0 0.0)
  end
  begin
     id 25 
     name rhumerus
     direction -1 -4.48965e-011 1.61691e-027  
     length 4.86725   
     axis -180 30 90   XYZ
    dof rx ry rz
    limits (-90.0 60.0)
           (-90.0 90.0)
           (-90.0 90.0)
  end
  begin
     id 26 
     name rradius
     direction -1 -4.48964e-011 -2.25776e-027   
     length 3.17144   
     axis -180 30 90   XYZ
    dof rx
    limits (-10.0 170.0)
  end
  begin
     id 27 
     name rwrist
     direction -1 -4.48961e-011 -7.31504e-027   
     length 1.58572   
     axis 5.74121e-015 -90 -90   XYZ
    dof ry
    limits (-180.0 0.0)
  end
  begin
     id 28
     name rhand
     direction -1 -4.49013e-011 -1.46301e-026   
     length 0.419368   
     axis 9.33524e-015 -90 -90   XYZ
    dof rx rz
    limits (-90.0 90.0)
           (-45.0 45.0)
  end
  begin
     id 29
     name rfingers
     direction -1 -4.489e-011 -2.92602e-026   
     length 0.338105   
     axis 1.86705e-014 -90 -90   XYZ
    dof rx
    limits (0.0 90.0)
  end
  begin
     id 30
     name rthumb
     direction -0.707107 -6.35022e-011 0.707107   
     length 0.485453   
     axis -90 -45 -2.85299e-015   XYZ
    dof rx rz
    limits (-45.0 45.0)
           (-45.0 45.0)
  end
:hierarchy
  begin
    root lhipjoint rhipjoint lowerback
    lhipjoint lfemur
    lfemur ltibia
    ltibia lfoot
    lfoot ltoes
    rhipjoint rfemur
    rfemur rtibia
    rtibia rfoot
    rfoot rtoes
    lowerback upperback
    upperback thorax
    thorax lowerneck lclavicle rclavicle
    lowerneck upperneck
    upperneck head
    lclavicle lhumerus
    lhumerus lradius
    lradius lwrist
    lwrist lhand lthumb
    lhand lfingers
    rclavicle rhumerus
    rhumerus rradius
    rradius rwrist
    rwrist rhand rthumb
    rhand rfingers
  end

#!OML:ASF H:\Swim 2\Project 1\Capture day 1\Session 1\male.ASF
:FULLY-SPECIFIED
:DEGREES
1211
root 6.05289 14.9794 10.9928 111.592 -76.953 -12.5242
lowerback -1.37617 5.34926 0.616648
upperback -7.1203 7.21063 -0.94628
thorax -6.43865 3.52954 -1.62169
lowerneck -13.0979 -5.05116 -3.1082
upperneck 2.35723 -6.70866 6.43409
head 3.48824 -3.12286 2.21941
rclavicle -6.36111e-015 6.22196e-014
rhumerus 39.1788 -14.8465 5.97626
rradius 35.2997
rwrist -19.9842
rhand -20.6057 -7.03331
rfingers 7.12502
rthumb 5.75508 -36.9352
lclavicle -6.36111e-015 6.22196e-014
lhumerus 76.4055 15.8779 -4.93737
lradius 38.5494
lwrist 58.4918
lhand -34.2026 -17.0398
lfingers 7.12502
lthumb -7.3751 12.8116
rfemur -89.4808 -0.877147 30.9546
rtibia 94.4229
rfoot 3.92214 3.19254
rtoes 3.24805
lfemur -92.914 18.7253 -32.8099
ltibia 102.084
lfoot -14.9007 -12.128
ltoes -17.5047
1212
root 6.02749 14.9916 11.0095 111.864 -76.8972 -12.8528
lowerback -1.23275 5.29918 0.678524
upperback -7.14551 7.14322 -0.99843
thorax -6.53503 3.48879 -1.72332
lowerneck -12.9919 -5.03613 -3.20349
upperneck 1.64171 -6.66551 6.66325
head 3.23107 -3.1129 2.32089
rclavicle -3.02153e-014 5.96354e-016
rhumerus 37.7827 -13.6004 6.51452
rradius 36.2285
rwrist -21.0919
rhand -20.3316 -6.90029
rfingers 7.12502
rthumb 6.01966 -36.7948
lclavicle -3.02153e-014 5.96354e-016
lhumerus 75.2682 15.2109 -6.12499
lradius 39.5253
lwrist 58.4452
lhand -33.8857 -17.1307
lfingers 7.12502
lthumb -7.06927 12.7312
rfemur -90.0716 -0.990921 31.1906
rtibia 95.5237
rfoot 3.91493 3.37377
rtoes 3.09063
lfemur -93.2896 19.1228 -33.0091
ltibia 103.212
lfoot -15.0297 -12.1845
ltoes -17.5231
1213
root 6.00111 15.004 11.0261 112.157 -76.8416 -13.1982
lowerback -1.10727 5.2605 0.727161
upperback -7.17082 7.09104 -1.04956
thorax -6.62298 3.45659 -1.81533
lowerneck -12.92 -5.02771 -3.30215
upperneck 0.968824 -6.63089 6.89251
head 2.99799 -3.10655 2.42161
rclavicle -2.22639e-014 -3.12092e-014
rhumerus 36.3933 -12.3636 6.94042
rradius 37.1677
rwrist -22.1233
rhand -20.0794 -6.64015
rfingers 7.12502
rthumb 6.26316 -36.5276
lclavicle -2.22639e-014 -3.12092e-014
lhumerus 74.1698 14.5 -7.25247
lradius 40.5526
lwrist 58.5681
lhand -33.6894 -17.2145
lfingers 7.12502
lthumb -6.87971 12.6537
rfemur -90.6739 -1.09001 31.3964
rtibia 96.6065
rfoot 3.91158 3.56126
rtoes 3.0094
lfemur -93.6586 19.5175 -33.1868
ltibia 104.328
lfoot -15.1685 -12.2707
ltoes -17.5591
1214
root 5.97373 15.0164 11.0427 112.458 -76.7861 -13.5482
lowerback -0.999197 5.23282 0.762102
upperback -7.1957 7.05347 -1.10037
thorax -6.70204 3.43269 -1.89826
lowerneck -12.8713 -5.02636 -3.39495
upperneck 0.321263 -6.6062 7.12024
head 2.77989 -3.10503 2.51961
rclavicle -2.06736e-014 -7.23576e-014
rhumerus 34.9971 -11.1311 7.25933
rradius 38.1324
rwrist -23.0414
rhand -19.8789 -6.32234
rfingers 7.12502
rthumb 6.45676 -36.2039
lclavicle -2.06736e-014 -7.23576e-014
lhumerus 73.1288 13.7558 -8.29359
lradius 41.6512
lwrist 58.8973
lhand -33.7101 -17.1983
lfingers 7.12502
lthumb -6.89976 12.6692
rfemur -91.2842 -1.17492 31.5723
rtibia 97.6677
rfoot 3.90186 3.75675
rtoes 2.9103
lfemur -94.0199 19.9109 -33.3423
ltibia 105.426
lfoot -15.3166 -12.3785
ltoes -17.6056
1215
root 5.94495 15.0291 11.0598 112.699 -76.7411 -13.8456
lowerback -0.892648 5.2076 0.789562
upperback -7.21932 7.01902 -1.15168
thorax -6.77983 3.41076 -1.97751
lowerneck -12.8293 -5.02619 -3.48624
upperneck -0.315827 -6.58243 7.34514
head 2.56795 -3.10455 2.61634
rclavicle -1.11319e-014 -2.82274e-014
rhumerus 33.618 -9.8929 7.47034
rradius 39.1196
rwrist -23.8466
rhand -19.7414 -6.01518
rfingers 7.12502
rthumb 6.58946 -35.8927
lclavicle -1.11319e-014 -2.82274e-014
lhumerus 72.1364 12.9791 -9.24793
lradius 42.7802
lwrist 59.3577
lhand -33.8048 -17.2192
lfingers 7.12502
lthumb -6.99114 12.6453
rfemur -91.8905 -1.27488 31.7142
rtibia 98.707
rfoot 3.87591 3.96137
rtoes 2.80068
lfemur -94.3491 20.2831 -33.4776
ltibia 106.497
lfoot -15.4717 -12.4931
ltoes -17.6639
1216
root 5.91474 15.0418 11.0773 112.867 -76.7032 -14.0786
lowerback -0.775369 5.17559 0.824562
upperback -7.24301 6.97542 -1.20555
thorax -6.86312 3.38348 -2.06418
lowerneck -12.782 -5.02142 -3.58485
upperneck -0.959946 -6.55077 7.58411
head 2.35452 -3.10084 2.7202
rclavicle 1.59028e-014 3.16068e-014
rhumerus 32.2744 -8.63299 7.56733
rradius 40.1323
rwrist -24.5559
rhand -19.6996 -5.73741
rfingers 7.12502
rthumb 6.62977 -35.6136
lclavicle 1.59028e-014 3.16068e-014
lhumerus 71.1844 12.1769 -10.1129
lradius 43.9321
lwrist 59.903
lhand -33.9784 -17.2121
lfingers 7.12502
lthumb -7.15874 12.6468
rfemur -92.4843 -1.38832 31.8254
rtibia 99.7209
rfoot 3.83444 4.17116
rtoes 2.67049
lfemur -94.6421 20.637 -33.5888
ltibia 107.541
lfoot -15.6321 -12.6124
ltoes -17.7272
